<?xml version="1.0" encoding="iso-8859-1"?>
<!-- Generator: Adobe Illustrator 16.0.0, SVG Export Plug-In . SVG Version: 6.00 Build 0)  -->
<!DOCTYPE svg PUBLIC "-//W3C//DTD SVG 1.1//EN" "http://www.w3.org/Graphics/SVG/1.1/DTD/svg11.dtd">
<svg version="1.1" id="Capa_1" xmlns="http://www.w3.org/2000/svg" xmlns:xlink="http://www.w3.org/1999/xlink" x="0px" y="0px"
	 width="969.982px" height="969.982px" viewBox="0 0 969.982 969.982" style="enable-background:new 0 0 969.982 969.982;"
	 xml:space="preserve">
<g>
	<path d="M937.031,250.555c-21.249-9.669-42.856-19.473-63.752-28.955c-40.639-18.439-82.662-37.507-123.886-56.416
		c-7.768-3.562-15.452-7.376-23.589-11.414c-32.479-16.116-69.289-34.382-112.309-34.382h-24.032
		c-9.62,0-18.902,3.651-26.139,10.282c-5.699,5.223-9.85,11.987-12.004,19.56c-0.424,1.492-4.271,6.993-15.981,12.504
		c-13.478,6.343-31.194,9.837-49.89,9.837s-36.413-3.494-49.89-9.837c-11.71-5.511-15.558-11.012-15.981-12.504
		c-2.153-7.572-6.304-14.337-12.004-19.561c-7.235-6.63-16.518-10.282-26.138-10.282h-24.035
		c-45.053,0-85.888,20.228-121.917,38.074c-10.214,5.06-19.862,9.838-29.321,14.056c-26.528,11.827-53.271,24.134-79.133,36.037
		c-20.479,9.425-41.656,19.171-62.506,28.576c-5.352,2.414-10.726,4.885-15.923,7.275c-5.125,2.356-10.424,4.793-15.6,7.127
		c-28.17,12.706-40.753,45.961-28.049,74.132l48.462,107.458c9.044,20.053,29.104,33.01,51.105,33.01
		c7.979,0,15.726-1.669,23.026-4.962l0.525-0.236l0.516-0.258l53.535-26.664V760.42c0,15.051,6.94,36.486,40.003,53.125
		c16.869,8.488,40.303,15.705,69.649,21.449c51.413,10.061,120.193,15.602,193.674,15.602c73.479,0,142.261-5.541,193.674-15.602
		c29.347-5.744,52.78-12.959,69.649-21.449c33.062-16.639,40.003-38.074,40.003-53.125V432.662l52.291,26.848l0.676,0.348
		l0.693,0.312c7.3,3.292,15.047,4.962,23.025,4.962c22.001,0,42.062-12.958,51.105-33.01l48.462-107.457
		C977.728,296.51,965.166,263.278,937.031,250.555z M937.684,312.331l-48.463,107.457c-4.346,9.637-13.829,15.344-23.757,15.344
		c-3.58,0-7.217-0.741-10.691-2.309l-95.994-49.286V760.42c0,40.117-136.664,60.176-273.327,60.176s-273.327-20.059-273.327-60.176
		V384.555l-96.91,48.268c-3.476,1.567-7.112,2.309-10.692,2.309c-9.927,0-19.411-5.707-23.757-15.344L32.301,312.331
		c-5.914-13.113-0.078-28.537,13.035-34.45c10.526-4.747,20.993-9.653,31.525-14.403c47.267-21.321,94.162-43.445,141.52-64.559
		c43.683-19.476,89.679-49.529,139.021-49.53c0.001,0,24.034,0,24.034,0c4.503,0,8.055,3.717,9.287,8.048
		c7.108,24.999,46.812,44.135,94.728,44.135s87.618-19.136,94.729-44.135c1.231-4.332,4.783-8.048,9.286-8.048h24.032
		c45.275,0,83.509,24.772,123.389,43.064c62.499,28.667,125.178,56.948,187.763,85.427
		C937.761,283.793,943.596,299.218,937.684,312.331z"/>
	<path d="M561.662,387.069c0,21.831,17.697,42.614,39.528,42.614s39.527-20.783,39.527-42.614v-30.276h-79.056V387.069z"/>
	<path d="M647.68,311.997H554.7c-22.056,0-40,17.944-40,40v33.27c0,22.443,8.814,45.174,24.182,62.361
		c7.839,8.768,16.962,15.736,27.117,20.713c11.179,5.479,23.021,8.259,35.192,8.259s24.013-2.778,35.191-8.259
		c10.155-4.977,19.278-11.945,27.117-20.713c15.368-17.188,24.183-39.918,24.183-62.361v-33.27
		C687.68,329.941,669.737,311.997,647.68,311.997z M657.68,385.266c0,31.198-25.291,61.333-56.489,61.333
		s-56.49-30.135-56.49-61.333v-33.27c0-5.522,4.478-10,10-10h92.979c5.523,0,10,4.478,10,10V385.266z"/>
	<path d="M894.405,279.625c-28.467-12.953-49.408-22.312-69.66-31.363c-24.456-10.929-47.555-21.252-81.604-36.87
		c-7.976-3.658-16.122-7.701-24.002-11.611c-32.517-16.135-66.14-32.819-105.642-32.819h-6.918
		c-10.961,0-20.491,7.613-23.715,18.945c-1.537,5.404-11.86,14.148-31.46,21.501c-19.591,7.35-44.247,11.737-65.954,11.737
		s-46.363-4.388-65.954-11.737c-19.6-7.353-29.923-16.097-31.459-21.499c-3.222-11.333-12.753-18.947-23.716-18.947h-6.919
		c-41.54,0-79.015,18.562-115.256,36.514c-10.354,5.129-20.136,9.974-29.874,14.315c-26.448,11.792-53.151,24.081-78.977,35.966
		c-20.502,9.435-41.703,19.192-62.603,28.62c-7.552,3.406-10.912,12.289-7.505,19.841c2.503,5.55,7.965,8.836,13.682,8.836
		c2.062,0,4.157-0.428,6.159-1.331c10.091-4.552,20.238-9.174,30.339-13.798c10.923-5,21.792-10.001,32.471-14.916
		c25.745-11.848,52.366-24.1,78.65-35.818c10.294-4.589,20.807-9.797,30.975-14.833c33.146-16.419,67.421-33.396,101.939-33.396
		h2.717c7.27,19.355,30.321,31.588,48.84,38.535c23.122,8.674,51.002,13.648,76.491,13.648c25.49,0,53.37-4.975,76.491-13.648
		c18.519-6.947,41.57-19.182,48.84-38.535h2.716c32.468,0,61.533,14.423,92.306,29.692c8.081,4.011,16.438,8.157,24.829,12.006
		c34.186,15.68,57.35,26.032,81.872,36.992c12.413,5.547,25.094,11.214,39.6,17.75c9.107,4.104,18.932,8.549,29.876,13.53
		c7.545,3.43,16.436,0.1,19.866-7.44C905.276,291.951,901.945,283.057,894.405,279.625z"/>
</g>
<g>
</g>
<g>
</g>
<g>
</g>
<g>
</g>
<g>
</g>
<g>
</g>
<g>
</g>
<g>
</g>
<g>
</g>
<g>
</g>
<g>
</g>
<g>
</g>
<g>
</g>
<g>
</g>
<g>
</g>
</svg>
